<?xml version="1.0" encoding="utf-8"?>
<!-- Generator: Adobe Illustrator 19.2.1, SVG Export Plug-In . SVG Version: 6.00 Build 0)  -->
<svg version="1.1" id="Capa_1" xmlns="http://www.w3.org/2000/svg" xmlns:xlink="http://www.w3.org/1999/xlink" x="0px" y="0px"
	 viewBox="0 0 24 33.3" style="enable-background:new 0 0 24 33.3;" xml:space="preserve">
<style type="text/css">
	.st0{fill:#FFFFFF;}
</style>
<path class="st0" d="M13.4,33.2c2-0.6,3.5-2.5,3.5-4.7c0-1.9-2.7-6.4-4.9-9.8c-2.2,3.3-4.9,7.9-4.9,9.8c0,2.3,1.6,4.2,3.7,4.8
	C4.4,32.7,0,27.7,0,21.1c0-3.4,1.6-6.6,3.7-9.9c1.3,1.8,2.2,3.9,4.2,5.1c0.5,0.3,1.2-0.1,1.1-0.7c-1-7.3,2.4-13,6.1-15.6
	C14.9,11,24,12.5,24,21.1C24,27.5,19.5,32.5,13.4,33.2z"/>
</svg>
